<svg id="Capa_1" enable-background="new 0 0 512.003 512.003" height="512" viewBox="0 0 512.003 512.003" width="512" xmlns="http://www.w3.org/2000/svg"><g fill="rgb(0,0,0)"><path d="m467.803 234.547h-423.6c-23.458 0-43.28 18.29-44.167 41.731-.051 1.343-.033 107.825-.033 107.724 0 8.284 6.716 15 15 15h50v24.576c0 8.077 6.207 15.027 14.275 15.407 8.614.406 15.725-6.458 15.725-14.983v-25h322v24.576c0 8.077 6.207 15.027 14.275 15.407 8.614.406 15.725-6.458 15.725-14.983v-25h50c8.284 0 15-6.716 15-15v-106c0-24.364-20.233-43.455-44.2-43.455z"/><path d="m163.003 168.002c0-24.813 20.187-45 45-45h96c24.813 0 45 20.187 45 45v36.545h124.529c-19.374-75.542-88.03-131.545-169.529-131.545h-96c-81.499 0-150.155 56.004-169.529 131.545h124.529z"/><path d="m304.003 153.002h-96c-8.284 0-15 6.716-15 15v36.545h126v-36.545c0-8.285-6.716-15-15-15z"/></g></svg>